<svg id="Layer_1" data-name="Layer 1" xmlns="http://www.w3.org/2000/svg" viewBox="0 0 72 72"><defs><style>.cls-1{fill:#1a1a1a;}.cls-2{fill:#666;}.cls-3{fill:#8fc9f6;}.cls-4{fill:#aff7ff;}.cls-5{fill:#333;}.cls-6{fill:#23ffff;}</style></defs><circle class="cls-1" cx="36" cy="36" r="35.5"/><path class="cls-2" d="M36,1A35,35,0,1,1,1,36,35.04,35.04,0,0,1,36,1m0-1A36,36,0,1,0,72,36,36,36,0,0,0,36,0Z"/><polygon class="cls-3" points="23.117 21.591 30.417 28.891 34.708 24.6 34.708 9.944 33.682 9 23.117 21.591"/><polygon class="cls-4" points="9 33.697 10.046 34.826 24.483 34.826 28.805 30.503 21.506 23.203 9 33.697"/><polygon class="cls-3" points="9 38.416 21.517 48.917 28.932 41.502 24.563 37.133 10.076 37.133 9 38.416"/><polygon class="cls-3" points="23.062 50.457 33.587 63 34.708 62.06 34.708 47.28 30.474 43.045 23.062 50.457"/><polygon class="cls-4" points="38.3 63 37.225 62.006 37.225 47.286 41.406 43.105 48.8 50.499 38.3 63"/><polygon class="cls-3" points="50.41 48.885 43.018 41.492 47.403 37.107 61.882 37.133 63 38.32 50.41 48.885"/><polygon class="cls-4" points="62.946 33.639 61.951 34.826 47.431 34.826 43.061 30.456 50.403 23.114 62.946 33.639"/><polygon class="cls-4" points="38.34 9.077 37.225 10.013 37.225 24.619 41.519 28.914 48.841 21.592 38.34 9.077"/><circle class="cls-5" cx="36" cy="36" r="6.536"/><polygon class="cls-6" points="35.647 31.761 32.062 35.346 32.062 36.654 35.647 40.239 35.647 37.646 33.993 36 35.647 34.346 35.647 31.761"/><polygon class="cls-6" points="36.353 40.239 39.938 36.654 39.938 35.346 36.353 31.761 36.353 34.354 38.007 36 36.353 37.654 36.353 40.239"/><circle class="cls-6" cx="36" cy="36" r="0.941"/></svg>