<svg id="Layer_1" data-name="Layer 1" xmlns="http://www.w3.org/2000/svg" viewBox="0 0 210.749 72"><defs><style>.cls-1,.cls-2{fill:#1a1a1a;}.cls-1{stroke:#666;stroke-miterlimit:10;}.cls-3{fill:#666;}.cls-4{fill:#8fc9f6;}.cls-5{fill:#aff7ff;}.cls-6{fill:#333;}.cls-7{fill:#23ffff;}</style></defs><path class="cls-1" d="M105.448,60.572a13.609,13.609,0,0,1-5.571-1.215,9.776,9.776,0,0,1-4.218-3.387l-.215-.318,2.892-3.343.376.464a7.935,7.935,0,0,0,6.432,3.26,6.2,6.2,0,0,0,4.579-1.634,6.363,6.363,0,0,0,1.624-4.663v-.965a9.663,9.663,0,0,1-6.6,2.286,9.175,9.175,0,0,1-7.6-3.782c-1.9-2.468-2.858-5.859-2.858-10.078,0-4.049.958-7.326,2.849-9.741a9.285,9.285,0,0,1,7.659-3.7,9.381,9.381,0,0,1,6.831,2.578l.158-2.109h4.925v25.25a10.843,10.843,0,0,1-3.069,8.116A11.3,11.3,0,0,1,105.448,60.572Zm.422-32.132a5.245,5.245,0,0,0-4.54,2.254c-1.119,1.546-1.686,3.9-1.686,7a10.938,10.938,0,0,0,1.664,6.447,5.194,5.194,0,0,0,4.515,2.241,5.821,5.821,0,0,0,5.524-3.35V31.7A5.887,5.887,0,0,0,105.87,28.44Z" transform="translate(-2.293)"/><path class="cls-1" d="M137.854,50.588V33.307a5.392,5.392,0,0,0-1.119-3.713,4.577,4.577,0,0,0-3.466-1.154,5.8,5.8,0,0,0-3.415,1.034,7.166,7.166,0,0,0-2.273,2.661V50.588h-5.336v-37h5.336V26.513a9.691,9.691,0,0,1,7-2.753c5.663,0,8.561,3.219,8.609,9.567V50.588Z" transform="translate(-2.293)"/><path class="cls-1" d="M159.589,51.057A11.2,11.2,0,0,1,150.86,47.3a14.27,14.27,0,0,1-3.326-9.825v-.3a15.532,15.532,0,0,1,1.517-6.924,11.469,11.469,0,0,1,4.263-4.8,11.65,11.65,0,0,1,6.228-1.692,11.222,11.222,0,0,1,8.752,3.753c2.207,2.474,3.326,5.8,3.326,9.872v.3a15.669,15.669,0,0,1-1.468,6.862,11.3,11.3,0,0,1-4.241,4.79A11.776,11.776,0,0,1,159.589,51.057Zm-.047-22.734a5.7,5.7,0,0,0-4.783,2.36c-1.238,1.6-1.865,3.963-1.865,7.006a10.426,10.426,0,0,0,1.853,6.47,6.132,6.132,0,0,0,9.692-.031,11.449,11.449,0,0,0,1.845-6.954,10.4,10.4,0,0,0-1.878-6.458A5.769,5.769,0,0,0,159.542,28.323Z" transform="translate(-2.293)"/><path class="cls-1" d="M185.886,51.057a13.318,13.318,0,0,1-5.6-1.124,9.293,9.293,0,0,1-3.871-3.184A7.778,7.778,0,0,1,175,42.283v-.5h5.309l.026.474a3.981,3.981,0,0,0,1.556,3.09,6.321,6.321,0,0,0,3.992,1.171,6.544,6.544,0,0,0,3.671-.912,2.568,2.568,0,0,0,1.266-2.245,2.7,2.7,0,0,0-1.12-2.327,12.388,12.388,0,0,0-4.426-1.59,22.368,22.368,0,0,1-5.348-1.731,7.942,7.942,0,0,1-3.046-2.507,6.123,6.123,0,0,1-1.013-3.516,7.087,7.087,0,0,1,2.82-5.661,10.832,10.832,0,0,1,7.055-2.269,11.127,11.127,0,0,1,7.316,2.342,7.583,7.583,0,0,1,2.864,6.08v.5h-5.36v-.5a3.41,3.41,0,0,0-1.336-2.69,5.133,5.133,0,0,0-3.484-1.169,5.478,5.478,0,0,0-3.4.927,2.745,2.745,0,0,0-1.142,2.3,2.143,2.143,0,0,0,1.012,1.947,14.956,14.956,0,0,0,4.328,1.456,24.008,24.008,0,0,1,5.376,1.775,8.2,8.2,0,0,1,3.177,2.589,6.483,6.483,0,0,1,1.06,3.741,6.993,6.993,0,0,1-2.918,5.848A11.934,11.934,0,0,1,185.886,51.057Z" transform="translate(-2.293)"/><path class="cls-1" d="M208.714,51.057a5.9,5.9,0,0,1-4.766-1.937,8.064,8.064,0,0,1-1.594-5.313V28.581h-4.617V24.229h4.617V18.088h5.336v6.141h4.735v4.352H207.69V43.826a3.068,3.068,0,0,0,.518,1.969,2.219,2.219,0,0,0,1.771.582,10.056,10.056,0,0,0,1.959-.271l.6-.128v4.495l-.369.1A13.192,13.192,0,0,1,208.714,51.057Z" transform="translate(-2.293)"/><circle class="cls-2" cx="38.293" cy="36" r="35.5" transform="matrix(0.16, -0.987, 0.987, 0.16, -5.669, 68.032)"/><path class="cls-3" d="M38.293,1a35,35,0,1,1-35,35,35.039,35.039,0,0,1,35-35m0-1a36,36,0,1,0,36,36,36,36,0,0,0-36-36Z" transform="translate(-2.293)"/><polygon class="cls-4" points="23.117 21.591 30.417 28.891 34.708 24.6 34.708 9.944 33.682 9 23.117 21.591"/><polygon class="cls-5" points="9 33.697 10.046 34.826 24.483 34.826 28.805 30.503 21.506 23.203 9 33.697"/><polygon class="cls-4" points="9 38.416 21.517 48.917 28.932 41.502 24.563 37.133 10.076 37.133 9 38.416"/><polygon class="cls-4" points="23.062 50.457 33.587 63 34.708 62.06 34.708 47.28 30.474 43.045 23.062 50.457"/><polygon class="cls-5" points="38.3 63 37.225 62.006 37.225 47.286 41.406 43.105 48.8 50.499 38.3 63"/><polygon class="cls-4" points="50.41 48.885 43.018 41.492 47.403 37.107 61.882 37.133 63 38.32 50.41 48.885"/><polygon class="cls-5" points="62.946 33.639 61.951 34.826 47.431 34.826 43.061 30.456 50.403 23.114 62.946 33.639"/><polygon class="cls-5" points="38.34 9.077 37.225 10.013 37.225 24.619 41.519 28.914 48.841 21.592 38.34 9.077"/><circle class="cls-6" cx="36" cy="36" r="6.536"/><polygon class="cls-7" points="35.647 31.761 32.062 35.346 32.062 36.654 35.647 40.239 35.647 37.646 33.993 36 35.647 34.346 35.647 31.761"/><polygon class="cls-7" points="36.353 40.239 39.938 36.654 39.938 35.346 36.353 31.761 36.353 34.354 38.007 36 36.353 37.654 36.353 40.239"/><circle class="cls-7" cx="36" cy="36" r="0.941"/></svg>